<mxfile host="app.diagrams.net" modified="2023-12-26T11:57:03.682Z" agent="Mozilla/5.0 (Windows NT 10.0; Win64; x64) AppleWebKit/537.36 (KHTML, like Gecko) Chrome/120.0.0.0 Safari/537.36" etag="15qJ28pEBJXVSUcLafI5" version="22.1.11" type="github">
  <diagram name="第 1 页" id="7bPrHwekVjP-7sVoCEZS">
    <mxGraphModel dx="1434" dy="738" grid="1" gridSize="10" guides="1" tooltips="1" connect="1" arrows="1" fold="1" page="1" pageScale="1" pageWidth="827" pageHeight="1169" math="0" shadow="0">
      <root>
        <mxCell id="0" />
        <mxCell id="1" parent="0" />
        <mxCell id="pwjB5umh5z7g6DbujlY--1" value="" style="shape=image;verticalLabelPosition=bottom;labelBackgroundColor=default;verticalAlign=top;aspect=fixed;imageAspect=0;image=data:image/png,iVBORw0KGgoAAAANSUhEUgAAAVMAAAB8CAYAAADUxlMjAAAaE0lEQVR4Ae2dCXhUVZbHAdtZu6env55vxnUUwq4oroDYhKWFlmXAb8SWtkfRbmVoFG23bkAQlYSdRoRGUVEb2ffsBAIEwhKyVXaykp2QhSyVpKpSVe8/c96jsJKqJJV6r6reqzr1fe+r9d137u+c93/33XvurT7gBxNgAkyACcgm0Ed2CVwAE2ACTIAJgMWUg4AJMAEmoAABhcRUAKCmTQEyXIRCBNQUF2QLP9RDwL9iQ76YNuYC5WFARbgKtjCgIR0QLOqJl0C2pLlQBTFhi8swoOYcYDEGskfUU3fDNaAqRiXxEQZcjQPam2TxkSmmApC1Cjh0F3D4bt9vh+4Gkt4AzM2yoPDOChG4vMn3MWGLS4qN0zOAtmqFKsfFyCJQGQmEDVVHfFBsRD8CNGbKqpJ8MU1bBHzfB9ipgo3sOPU0YKiVBYV3VohAxnJghwrigmKTYiNsCKAvUqhyXIwsAkXbgd23qkM3KD72/hSoPS+rSv4lpgTlxCTAwK0PWVGh1M5qElOKjaMDgKZ8pWrH5cghULAN2NlPRWL6L0ANi+kPDhFbplMBY50cN/O+ShFQk5hSbIQPBfTFStWOy5FDoPhbYPff/XDu0sXOl9s+aplekFMjualRApC2WF23+RfmAuYWWVB4Z4UI5KxWT+uDxPTYE0DbVYUqx8XIIkCD1vv+1bcCahNvio0j/wk0ZMiqkvzb/Jy1wC6V9H3s6gdkfgIIVllQeGeFCJTuB/b9TD0nTMLzgLlVocpxMbII1KcAR/qrJzZinwTaqmRVSaaYQkptOPBzdUChpnr5EVlAeGcFCdDoaPgwdcQG3VJmhdzIh1awjlyUewQMV4Hj44GdfVUQH32Bi68C1nb36nJjL/liqi8Ejo1RB5TIkUDLFVlAeGcFCZjqgYQ5wK5bfH/CUPpe3UUFK8dFySJgaQV0i4E9/+D72NjzY6B4h6zq0M7yxZT6JzM/Avb+2LdQ9vwjoFsCWNpkQ+ECFCJAV/rC7cDB//BtbJCYk6ibGhSqGBcjm4AgAFePS+lqtr5Lnzz3lRqDCqTMyRdTmkZacwaIesh3rdNdfYHIB4Fr8XwbJzvKlSxAAJouA6en+7B12ldKDL+yExDMSlaOy5JLgFIYE1/z7ag+dQ1mr1akEaaAmAIw64GsUN+1TqlVnPEh0N4o1728v9IErCbpFurAv/umdUp9pRdeAdoqlK4ZlyeXAA0UV5+UUtZ80SqlO5a4p4DrNIovf90GZcSUoFKwxj8D7PyRl0+aW4D4mTfyB+UDkRsfvL8TAjTnOeWPPugfo1u4UUBdImd4OHGLKj6ii23ep75Jk6JJHJSiZVXmjkU5MaWrTM0FIGYMsMtbgtoPiH4MuJbAJ4sqzowujKD+MZp5RBdbrw049JVmPFF6lsxR2i5qxR8rRYAWPbm0ANj7E+81xA78G5C7QdGcdOXElMBaTEDZYUngPD6CewsQ+QBQdohPFqWC2pPlUH9l7Tlp7QSPz3zpCxy5B8jbArTzBA5PulWRssWLba7UHbPnnzwvqCSkukWAsUYR822FKCumVCotcVZ9AoibCOymtAcP5JHt/nvgxESgMoqXVLN5UgvPtDRigw44++sbrRBPxMat0mAkpbq08+phWggLyUYroL8CJL8J7P85QBNwlO5HpQbe0SCAJhopLKRUB+XFlEqlk+Z6GpA4T5rloNRtP8GgaV+JrwI0g8LK65Zq52S5YSl1B7WUSC2DiOEAXRgVOWn6ATTIdeZZoCqWL7KaCwzSDUFa8S1nPRDzOKBYK7UvQKP2cb8ESnbfWKJT+fEVz4ipKKhWoK0SuLILODlFqoy7VxtKfdpPMJ4Cir6VyuUpo1o8XWyKChjrgcoIKf+TbrvcjQ2689nzz0DMKKkPrLmAU6A0HBmi6ZQdROmWSQuktDa3p6v3lS7W4cOB9GXSXZHVc4uDe05MbQ6lzv+WUkkEz/0WCBssCSu1SKjFSicRieXNjd7/SMo9o6sJ/f7cHIBWmaHZTTT6xw//IECjqDT4QP3el+ZLfeD7fyYNUnUZG7fciI2fSHcpp/8LoEWoG3Nu5Aoq3+LwD9gaqwU1lkyNUmJ/6ntSYj1ddGlyDq2DSnepHbSDdINi41bp4nrwDqkrMDMEqE+W0jcVSH/qjqLnxdR2dBFOPVB3CSj4HCBA514Ajk+QmvTRj0rPJyZIrZWUd4H8z4Hai9KSetwStZH0v2e6vaP+zYZMoOg7QPcBcP4lIG6ylNpEq6DHPAYcHwecnQ0kLwRyN0o5irQ4BQ1uURn88D8C5Fdzm5QNUroPyPhI6uY7PVUSWFE3HgVixwLxs4DE+UD2GqAiSupOEjM5vBMb3hPTm24WpNF3moZKJwKdQCSwJJr0TMtgtVZKq/t4EcRN8/iFbwlQa5WmBFOLtSkXqEsCahOlXFEavGotk4SX7lD4AutbX3n76DQWYzFIXUTNeUBd8g+xUZ8q/YsCTRn2UWz4QEw7e4CuGp23zr/h94FLgGMjcH3fU83VFRsqENOegPH3TIAJMAH1E2AxVb+P2EImwAQ0QIDFVANOYhOZABNQPwEWU/X7iC1kAkxAAwRYTDXgJDaRCTAB9RNgMVW/j9hCJsAENECAxVQDTmITmQATUD8BFlP1+4gtZAJMQAMEWEw14CQ2kQkwAfUTYDFVv4/YQibABDRAgMVUA05iE5kAE1A/ARZT9fuILWQCTEADBFhMNeAkNpEJMAH1E2AxVb+P2EImwAQ0QIDFVANOYhOZABNQPwEWU/X7iC1kAkxAAwRYTDXgJDaRCTAB9RNgMVW/j9hCJsAENECAxVQDTmITmQATUD8BFlP1+4gtZAJMQAMEWEw14CQ2kQkwAfUTYDFVv4/YQibABDRAgMVUA05iE5kAE1A/ARZT9fuILWQCTEADBFhMNeAkNpEJMAH1E2AxVb+P2EImwAQ0QIDFVANOYhOZABNQPwEWU/X7iC1kAkxAAwRYTDXgJDaRCTAB9RNgMVW/j9hCJsAENECAxVQDTmITmQATUD8BVYip1WxCe2sDrJZ29RNjC5kAE1AtAcFqFbXEYmr1uo2+F1PBiqbCRBTu/wBVCTvQerUAZoMeEASvw+ADqo+AYDHD3NqAdn0tTE3XYGy8Kr5u19fxxVd97vKZRdZ2Iwy1V1CbFoGCfYtxLfkwqJHmzYfPxdRibEFJxGqkrpyItDWTkfPV71EZ/xX0FVmwthu8yYKPpUICpsZqVJz8HMWHlqJw3yIU7PkTig8tQ0nEKvHkUaHJbJIXCQhmEwx1pbh26QAu/+0N6NZPR0roBOTtfBttNSVetATwqZgKgoDmMh0yP5uNlJBgaQsdD926p5G7fR4acuO9CoMPpj4CbdeKcfmbeUhdOQGpoRPEE4UuvOkbZ0FfplOfwWyR1wiQfujLM1G4fzHS189ASsj4mzqi2zAD15IOQfBi16FPxdRioFbpGqSE/gDBJqp0hWnMS/CaY/hA6iTQdq0IuV+/ipSQcTdPFIoROln0pWnqNJqt8hqBlops5Hz1ClJWdIwPipG879+EsaHKa7b4TkwFAU3FycjYZNcqtWudFu5bAnNro9dA8IHUSYDFVJ1+UYtVFpMBlae+QuqqSR0utnTxTVv7K9SkHAENSnnj4TMxNbc1ouzYJqSu+mUnCMHiLVxdZiwEq8UbDPgYKibAYqpi56jCNAGtV/OQ9dc5Tlunl3csBA1WeuPhGzG9MYKftfW3DkKaEjoRRQeXwdRU7Y368zFUToDFVOUOUoF51naTOEjp2DoNRuqaX6E2LdwrDTOfiKm5rQkl0RucNM2DkbHxGdRnH4dgNavATWyCrwmwmPraA9o4fmvVZeRse9mxcRYSjPydb8NQ5/mRfZ+Iqb4sHZmbf+204oV7/yzmE2rDhWylpwmwmHqasH+UT0n65cc3I23NUw66QoOVtalhHh/Z97qYCu0mlMVsRLJdGoM4gr9iHHRrp6I+45jXOoz9I4z8uxYspv7tX8VqJ1jFNMucba84iCnlnRbsfg/G65WKHc5ZQd4VU8orLUlDxmezkewklYFapWZDszM7+bMAJcBiGqCOd6PaVmMLyuO2Is3JoLZu3VTUpnq279SrYmox6FEWuwk0yGTLJ7U9p6+fjvqMGAA8jdSNOPLbXVhM/da1HqgYJfFnIeuvLziM7CdT3+mud8SpyB44sFik98SUWqVXUpD9xUsOQpoaOh4F1Ffa6L0EW08B5XKVJcBiqixPfy+N5uOXU4PNlrNu95y2egrqMmIgCJ7JO/WamFoMzWJfqbMmeMbGWahLiwQtasEPJmBPgMXUnga/doUAzYrK2vqCU0HN3/kuTI1XXSmm17/xkpgK0JdlwHle6XhQX6mnO4d7TYZ3UAUBFlNVuEFTRthG9lNXO47sp/9lpriylCfm7HtFTC1mo5i24CypVrf2adSmc6tUU9HqRWNZTL0I218ORSP7xUnI/uJ/HFqnqaETUXhgKYwNyrdOvSCmAlqqcpGx+TmHiqWESgm13pru5S+xEkj1YDENJG8rV1fKCqK8U+fT1WeiLj1a8VlRHhdTi5GSabeI65V27hTWrZ8mVYoXglYuivysJBZTP3Ool6ojLs9Xmi6N7NsNQokaRAPeu9+FSeE5+54VU0FAS0WW0xF8Wnsw//s/eqwz2Es+48N4mACLqYcB+3Hx1JArjVovroHrrCF3PfuUoiP7HhVTWkW/8tQ2pDnrCN4wEzXJRz0+xcuPYyUgqsZiGhBu9lgl9RXZyHS2zGdIMAr2vK/oilIeFFMB+lIdsrfN7bACttTMnoDCvX+C8XoFJ+l7LIz8o2AWU//wo69qYTW1oSz6L04XVdKtm456BZf69JiY0h9cVZ76EqmrHNMTdOumoSbpMASLd//wylcO5eO6T4DF1H12vCe11QRxZN95WuYEFB38ULGuRo+Jaeu1AmRt/Y3DCD7Nyc/fsRCmphr2NRPokQCLaY+I+Ac9EKAlP8toyc+VnVfjD0bGp8+gPoMWopc/YcgjYkqt0oq4rY639yHBSFszRUqa5RH8HkKAvyYCLKYcB3IJ0PTR5ivJXY7sF+5brMicfcXFlFISWitznS/UGjoeeX9bCJMHEmblAuf91UmAxVSdftGaVbTIUmnk2i5G9mfgeu5psUtATr0UF1NKR6g8/TXSVk92uMWnZbBqLh3kOfhyPBZg+7KYBpjDPVVd+lvoK6nI2PTfTleUKtr/Aag7QM5DYTGV/sc656vfOwipbYFWQ12pHHt53wAjwGIaYA73YHUFswklUescW6e0MP366biecxKQ8Seeioqppd2AilPbkOqsVbp+GmqSD4MqxA8m4CoBFlNXSfHvXCHQVJyEzC3PO23sFR2iP/K85koxTn+jnJgKAtpqip33lYYE4/J3CyC1SnnxZ6ee4A+dEmAxdYqFP3STgLnlOkoiViPN2cj+Z7NxPTvO7Tn77oupIMDa3g6LwQBLWxvMLXpUxH2NlBUTkLIiuIPyU/+p2CpVIP3ATYa8m0YJsJhq1HFqNVuworHgPDK3zOmgUaJmrRiPon1LYayrEjWNtM1qMrn8n3S9F1NBQHtjI67rdCjZtw+5GzYge+VKZK34BAkvTkb8nIdx7n8fR+LisUj+ZBySVwTj8rfzYWqsBo3084MJ9IYAi2lvaPFvXSFgbm1AaeQapKycKDb8Li19EucXjkb8bx7G2ReCkb7sz6Km5a5di+JvvkHdxYsw1NZCsFi6Lb5XYiqYzWjOy0N2SAjiZ85EzGOPIWLYMIQPHixtA4MQMXQgokYORuyk+5Dw2uNIDZ2C6ot7eAS/Wzfwl10RYDHtigx/7jYBwYqmwkSkb5iFCwtHI276CEQ9MhgRwwYifFAQwgcPEvUsYsgQRI8ciVNTpkC3aBFqEhJgMRq7PKzLYmpubUVFRATOzJqFyKFDERYUhLABA7rdIkYMwrm5T6MpVyc7h6vLGvAXfk3gppjSv9lS99GNjf4LXV+a5td158p5joCxrhqpi+Yi8qFBooD2pGXhQ4bgRHAwCr74AqbGRqd65pKYkhqXHziAk5MmIdwFEbU3LOr++5H+wQcw1tV5jgyX7J8EaAnH8lxkbZqLC2+PwfnXR+H8glG48NYYpHz8NBrzEl3uz/JPQFwrdwi0Nzej6JtvcOyxRxHWv3+3DUJ7LaPX0Q89hLzNm2G6ft3h0C6JaUN6OuJnzHCpNdr54KIBI0ei+LvvxM5cBwv4AybQmQANbhqNoLi7/Ok6nJr5C8SMHoaoR4aIt2Mxo4bixFMPIzPkQ/HWy9zczP3xnRnye6cEqKvy6okTODl5cq9E1F7Xjo8bh4qjRyG0t3c4Ro9iSiP1GR9+iPCBA90+OBlCYtyYnd3h4PyGCTgQsFrRVlGBwi+/xOnp0xE5fDjCBzrpUgoKEvvr6dYr65NP0FxQAKtZ/mIVDvbwB35FwFBdjeQ33kDEoEHu69nAgbjw4otinNrD6V5MBQFN2dk4OWECjvayOWyv5PQ68v77UbR9e7cduPaG8esAJEBT/oqKkPrOO4h64AHXgr1/f3GwgIK79tw5MV0vAMlxlV0hIAioOXsWsaNGuRZb3YwJRY0cicqoqA5H7VZMrRYLyo8eRfSDD8o+eNjAgdAtWSKmVXWwgN8wASIgCDDW1yN9yRKxNdr5YtzTexp5vfjyy2i6fNnp4ABDZgKC1So26Cj7qKd46vH7oCDkbdnSIda6F1OTCflbt7oV3M6MSV64EKb6evYqE3AgQMnRJbt2Ifrhh90OdMoyyfzoIzHh2uEA/EHAE6A80cyPP3Z77Mde047eey9y16/vpZhu2YLIYcPcDnB7A1hMAz6euwTQXFSEc3PmyAp06oqKHT1anFDCE0S6RB2wX4hiuny5rBiz6VnvxdRsRsnevWJ/p60Qt5+DgpD63nswNTQErDO54l0QsFpRFROD2CeekH3Rjhg8WExd6Wm2SheW8Md+TIBu8/O3bJE9mE4aSBfuyxs3ut4ypX6s+pQUKchlDkBFDB+O/M2b+RbMj4PV3apRHnPB558jcsQI2WJKk0mS33yTB6LcdYY/7ycIuBobK+aKut0ovDEoRQPqZfv390JMAbQ3NSHlrbfkNY3790fcpEmou3Spw8H92W9cN9cJ0Oy67NWrxVQnuUFOYpr0hz+wmLqOP6B+2VpWJg5Uykr1DArCmWeegb6wsAO7bgeg6JfU93QtPh6UqOrKFFJnJwPN389ZuxbmlpYOB+c3TIAIUC4z3TJF3HefIi3TpAULWEw5tJwSoIHO0r17ETt2rNuxFvPoo1Kap8HQ4Rg9iin9mkSQ+hpoYZPeCiqlIVz83e/QUlrKrdIO6PmNjQDNSqEAlzOSb7uIU4sjY+lSTuC3weVnBwKGmhpkhYQg0o2LNzUMdYsXo7WiwkHPXBJTsoZyAAu2bcOJcePEJGlb8Hb5HBQESmyl2QZNOTmA1epQKf6ACdgINKSl4dTUqW63FmxxGPnAA2K/GA028IMJOCVAOc01NeIyezGPP45wF2ZD0W/oYp++dKk088nJcqIuiykZ1a7Xi/NaqU/q+C9+IfVx0TRTWvzkxkYt0ZhHHsHZ2bPFpnBreTkvRuHUo/yhPQHqm88KDZWXhhcUhAsvvyzlMjsJdvvj8Wsm0N7QgLKDB5H46quIHTMGNPGDJhfZtIyeSc+OjRqFiy+9hJKdO8UFm7pKu+uVmBJ+SjmhW/bKyEjkrFmD5NdfF/MDzz33nHg7n7FsGa7s2CEuUkEDC/xgAi4REARx7Qbq2Le1Mnv1HBQkLpFWFR3NF2+XgPOPiAD1odIU5vIjR5C1YgWS5s/HueefF7dL8+Yhc/lycdS+KS9P/FeR7qj1WkxthZGo0sCBqa4O1PqkUTJaRMCs10ud/9wysKHiZxcJ0PTl6rg4nJ461bWuJNvc6aAgcYC0ePt2Mf5cPBz/jAncJED99jQ2RLf/op6Vl4uv6TP6jtJEe3q4LaY9FczfMwF3CND/itWcOYNL8+eL3UXdprBQv/yIETj77LMoP3yYhdQd4LyPYgRYTBVDyQUpRYAEVV9cjMLt28Wlzo4/+aQ48kp9WuI2bJjYj5Xw3HNiyl2DTserkSkFn8txmwCLqdvoeEePEhAEUSApBaU+MVGcbloZEQFxi4pCbUICWq5cEW/NuhoQ8Kh9XDgT6ESAxbQTEH6rUgLUZ2W/qdRMNitwCbCYBq7vueZMgAkoSMBtMaVbq5aWFtTX13tsa+XUKgVdrY2irFYrGhoaZMUU7d/e6f95tFF7tlIJAhaLBY2NjbJiyF7XKJ7MLvwljttiSsG6fPlyjB49GqNGjfLItmrVKiXYchkaIlBdXY2ZM2fKiqdp06YhMTFRQ7VmU5UkkJ+fj9mzZ8uKIXtNo3hKS+v5b8XdFlPT/6+MPnfuXPTr1w99+vRRfOvbty/mzZunJGMuSwMESktLce+998qKp7vuuguxsbEaqC2b6AkCOp0OgwcPlhVD9pp2xx134MyZMz2aqmoxfe2113qsAP/AvwiQmN5zzz2yToQ777yTxdS/wqJXtUlOTsaAAQNkxZC9mN5+++2Ij4/v0QYW0x4R8Q+8SYDE9O6775Z1IrCYetNj6jvWxYsXQXcn9oIo5/Vtt92G06dP91hRFtMeEfEPvEmAW6bepO2fx6L+zUGDBikmptQy9ehtPg1Avf/++xgyZIhoOBmv9LZ06VL/9DbXqksCVVVVGD9+vKxYGjt2LBISEro8Bn/h3wRycnIwefJkWTFkr2UUT0lJST1Cc7tlSqlRNTU1KC4u9thWW1vbYwX4B/5FgFJQysrKZMUUtW7b2tr8CwzXxmUCRqMR5eXlsmLIXtcongydVtV3ZozbYuqsMP6MCTABJhCoBFhMA9XzXG8mwAQUJcBiqihOLowJMIFAJcBiGqie53ozASagKIH/A0rgZbqnsbx3AAAAAElFTkSuQmCC;" vertex="1" parent="1">
          <mxGeometry x="20" y="240" width="339" height="124" as="geometry" />
        </mxCell>
        <mxCell id="pwjB5umh5z7g6DbujlY--2" value="火柴摆角" style="ellipse;whiteSpace=wrap;html=1;aspect=fixed;" vertex="1" parent="1">
          <mxGeometry x="470" y="190" width="60" height="60" as="geometry" />
        </mxCell>
        <mxCell id="pwjB5umh5z7g6DbujlY--3" value="光源" style="ellipse;whiteSpace=wrap;html=1;aspect=fixed;" vertex="1" parent="1">
          <mxGeometry x="610" y="190" width="60" height="60" as="geometry" />
        </mxCell>
        <mxCell id="pwjB5umh5z7g6DbujlY--4" value="阴影长度" style="ellipse;whiteSpace=wrap;html=1;aspect=fixed;" vertex="1" parent="1">
          <mxGeometry x="470" y="304" width="60" height="60" as="geometry" />
        </mxCell>
        <mxCell id="pwjB5umh5z7g6DbujlY--5" value="阴影位置" style="ellipse;whiteSpace=wrap;html=1;aspect=fixed;" vertex="1" parent="1">
          <mxGeometry x="610" y="304" width="60" height="60" as="geometry" />
        </mxCell>
        <mxCell id="pwjB5umh5z7g6DbujlY--6" value="" style="endArrow=classic;html=1;rounded=0;exitX=0.5;exitY=1;exitDx=0;exitDy=0;" edge="1" parent="1" source="pwjB5umh5z7g6DbujlY--2" target="pwjB5umh5z7g6DbujlY--4">
          <mxGeometry width="50" height="50" relative="1" as="geometry">
            <mxPoint x="390" y="410" as="sourcePoint" />
            <mxPoint x="440" y="360" as="targetPoint" />
          </mxGeometry>
        </mxCell>
        <mxCell id="pwjB5umh5z7g6DbujlY--7" value="" style="endArrow=classic;html=1;rounded=0;entryX=1;entryY=0;entryDx=0;entryDy=0;" edge="1" parent="1" source="pwjB5umh5z7g6DbujlY--3" target="pwjB5umh5z7g6DbujlY--4">
          <mxGeometry width="50" height="50" relative="1" as="geometry">
            <mxPoint x="390" y="410" as="sourcePoint" />
            <mxPoint x="440" y="360" as="targetPoint" />
          </mxGeometry>
        </mxCell>
        <mxCell id="pwjB5umh5z7g6DbujlY--8" value="" style="endArrow=classic;html=1;rounded=0;exitX=1;exitY=1;exitDx=0;exitDy=0;entryX=0;entryY=0;entryDx=0;entryDy=0;" edge="1" parent="1" source="pwjB5umh5z7g6DbujlY--2" target="pwjB5umh5z7g6DbujlY--5">
          <mxGeometry width="50" height="50" relative="1" as="geometry">
            <mxPoint x="390" y="410" as="sourcePoint" />
            <mxPoint x="440" y="360" as="targetPoint" />
          </mxGeometry>
        </mxCell>
        <mxCell id="pwjB5umh5z7g6DbujlY--9" value="" style="endArrow=classic;html=1;rounded=0;exitX=0.5;exitY=1;exitDx=0;exitDy=0;entryX=0.5;entryY=0;entryDx=0;entryDy=0;" edge="1" parent="1" source="pwjB5umh5z7g6DbujlY--3" target="pwjB5umh5z7g6DbujlY--5">
          <mxGeometry width="50" height="50" relative="1" as="geometry">
            <mxPoint x="390" y="410" as="sourcePoint" />
            <mxPoint x="440" y="360" as="targetPoint" />
          </mxGeometry>
        </mxCell>
      </root>
    </mxGraphModel>
  </diagram>
</mxfile>
